<?xml version="1.0" encoding="utf-8"?>
<!-- Generator: Adobe Illustrator 22.1.0, SVG Export Plug-In . SVG Version: 6.00 Build 0)  -->
<svg version="1.1" xmlns="http://www.w3.org/2000/svg" xmlns:xlink="http://www.w3.org/1999/xlink" x="0px" y="0px"
	 viewBox="0 0 438 78" style="enable-background:new 0 0 438 78;" xml:space="preserve">
<style type="text/css">
	.st0{display:none;}
	.st1{display:inline;fill:#ED40A9;}
	.st2{font-family:'Gabriola';}
	.st3{font-size:39px;}
	.st4{display:inline;fill:#00A887;}
	.st5{fill:#ED40A9;}
	.st6{fill:#00A887;}
</style>
<g id="Layer_1" class="st0">
	<text transform="matrix(1 0 0 1 226.7344 24.6289)"><tspan x="0" y="0" class="st1 st2 st3">Beachy </tspan><tspan x="90.9" y="0" class="st4 st2 st3">bodies</tspan></text>
	<text transform="matrix(1 0 0 1 154.7344 40.6289)" class="st5 st2 st3">BEACHY BODIES</text>
	<g>
		<path class="st1" d="M126,10.6c0-0.5,0-0.8-0.1-1.2c-0.1-0.3-0.2-0.6-0.4-0.8s-0.4-0.4-0.8-0.5c-0.3-0.1-0.8-0.1-1.3-0.1
			c-0.7,0-1.6,0.1-2.7,0.2l-0.2-1.4c1-0.2,2-0.4,3.2-0.6s2.3-0.4,3.5-0.5c1.2-0.2,2.4-0.3,3.7-0.4c1.2-0.1,2.4-0.2,3.6-0.2
			c0.9,0,1.8,0,2.7,0.1c0.9,0.1,1.8,0.3,2.6,0.5c0.8,0.2,1.5,0.5,2.2,0.9c0.7,0.4,1.3,0.8,1.8,1.4c0.5,0.5,0.9,1.2,1.2,1.9
			s0.4,1.6,0.4,2.6c0,1.4-0.2,2.6-0.7,3.7c-0.5,1.1-1.2,2-2,2.8c-0.8,0.8-1.8,1.5-2.9,2c-1.1,0.5-2.3,1-3.5,1.3v0.1
			c1.6,0.1,3.1,0.4,4.5,0.8c1.4,0.4,2.5,1,3.5,1.8c1,0.8,1.8,1.7,2.3,2.9c0.6,1.1,0.8,2.5,0.8,4c0,1.3-0.2,2.5-0.5,3.5
			c-0.4,1.1-0.9,2-1.5,2.8c-0.6,0.8-1.4,1.5-2.2,2.1c-0.9,0.6-1.8,1.1-2.8,1.4c-1,0.4-2.1,0.7-3.2,0.8c-1.1,0.2-2.2,0.3-3.4,0.3
			c-0.9,0-1.8-0.1-2.7-0.2c-0.9-0.1-1.8-0.2-2.8-0.4l-3.1,0.4l-0.3,0c0.1-1.4,0.3-2.9,0.4-4.6c0.1-1.6,0.2-3.4,0.3-5.1
			s0.2-3.6,0.2-5.5c0.1-1.9,0.1-3.8,0.2-5.7c0-1.9,0.1-3.8,0.1-5.7S126,12.4,126,10.6z M129,40.5c0.8,0.2,1.6,0.3,2.3,0.4
			c0.7,0.1,1.5,0.1,2.2,0.1c1.3,0,2.6-0.2,3.7-0.5s2.2-0.8,3-1.5s1.5-1.6,2-2.7s0.7-2.4,0.7-3.9c0-1.4-0.2-2.7-0.7-3.8
			c-0.5-1.1-1.2-2-2.1-2.7c-0.9-0.7-2.1-1.3-3.5-1.6c-1.4-0.4-2.9-0.5-4.7-0.5c-0.3,0-0.7,0-1.1,0c-0.4,0-0.7,0-1.1,0.1
			c0,0.7,0,1.4-0.1,2.3c0,0.9-0.1,1.8-0.1,2.8c0,1-0.1,2-0.1,3.1s-0.1,2.1-0.2,3.1c-0.1,1-0.1,2-0.2,2.9C129.1,39,129,39.8,129,40.5
			z M130.2,7.3c0,0.7,0,1.6,0,2.6c0,1,0,2.1-0.1,3.4s-0.1,2.6-0.1,4.1c0,1.5-0.1,3-0.1,4.7c0.9,0,1.9-0.1,2.8-0.2
			c0.9-0.1,1.8-0.3,2.6-0.6c0.8-0.3,1.6-0.6,2.3-1.1s1.3-1,1.8-1.6c0.5-0.6,0.9-1.3,1.2-2.1c0.3-0.8,0.4-1.8,0.4-2.8
			c0-1.2-0.2-2.3-0.6-3.1c-0.4-0.8-0.9-1.5-1.6-2s-1.5-0.9-2.4-1.1s-1.9-0.3-3-0.3c-0.5,0-1,0-1.6,0.1
			C131.3,7.2,130.7,7.2,130.2,7.3z"/>
		<path class="st1" d="M167.3,37.6c0.1,0,0.1,0.1,0.2,0.1c0.1,0.1,0.2,0.1,0.3,0.2c0.1,0.1,0.2,0.1,0.2,0.2c0.1,0.1,0.1,0.2,0.1,0.2
			c0,0,0,0.1,0,0.1c-0.6,0.8-1.2,1.6-1.9,2.2c-0.7,0.6-1.4,1.1-2.2,1.5s-1.5,0.7-2.3,0.9c-0.8,0.2-1.5,0.3-2.3,0.3
			c-1.3,0-2.5-0.3-3.5-0.8c-1.1-0.5-2-1.2-2.8-2.2c-0.8-0.9-1.4-2-1.8-3.2c-0.4-1.2-0.7-2.5-0.7-3.9c0-1.1,0.1-2.3,0.4-3.4
			c0.3-1.1,0.6-2.2,1.1-3.3c0.5-1,1.1-2,1.7-2.9c0.7-0.9,1.5-1.7,2.3-2.3c0.9-0.7,1.8-1.2,2.9-1.6c1-0.4,2.2-0.6,3.4-0.6
			c0.8,0,1.5,0.1,2.3,0.3c0.7,0.2,1.3,0.5,1.9,0.9c0.5,0.4,1,0.9,1.3,1.5c0.3,0.6,0.5,1.3,0.5,2c0,1.1-0.4,2-1.1,2.9s-1.7,1.5-3,2.1
			s-2.7,1-4.4,1.4c-1.7,0.3-3.5,0.6-5.5,0.8v0.3c0,1.4,0.2,2.6,0.5,3.8c0.3,1.1,0.8,2.1,1.4,2.9c0.6,0.8,1.3,1.4,2.2,1.9
			c0.8,0.5,1.7,0.7,2.7,0.7c1,0,2-0.2,3-0.7C165.2,39.4,166.2,38.6,167.3,37.6z M164.2,24.7c0-0.5-0.1-1-0.2-1.4s-0.4-0.8-0.7-1.1
			c-0.3-0.3-0.6-0.6-1.1-0.7c-0.4-0.2-0.8-0.3-1.3-0.3c-0.7,0-1.3,0.1-1.9,0.4c-0.6,0.2-1.1,0.6-1.5,1c-0.5,0.4-0.8,0.9-1.2,1.5
			c-0.3,0.6-0.6,1.2-0.9,1.8c-0.2,0.6-0.4,1.3-0.6,1.9c-0.2,0.7-0.3,1.3-0.3,1.9c1.5-0.1,2.9-0.3,4.1-0.6s2.2-0.6,3.1-1
			c0.8-0.4,1.5-0.9,1.9-1.5C164,26.1,164.2,25.4,164.2,24.7z"/>
		<path class="st1" d="M184.7,26c0-0.8-0.1-1.6-0.4-2.2c-0.3-0.6-0.6-1.1-1.1-1.5c-0.5-0.4-1-0.7-1.5-0.9c-0.6-0.2-1.1-0.3-1.7-0.3
			c-0.8,0-1.4,0.1-1.9,0.2c-0.5,0.2-1,0.4-1.3,0.7c-0.3,0.3-0.6,0.6-0.7,1c-0.1,0.4-0.2,0.8-0.2,1.2c0,0.5,0.1,1,0.3,1.6
			c0.2,0.5,0.5,1,0.8,1.5l-0.1,0.2c-0.6,0.3-1.2,0.5-1.8,0.5c-0.4,0-0.7-0.1-1-0.2s-0.6-0.3-0.8-0.5c-0.2-0.2-0.4-0.5-0.5-0.8
			c-0.1-0.3-0.2-0.7-0.2-1c0-0.6,0.2-1.2,0.5-1.8c0.3-0.6,0.7-1.1,1.2-1.5c0.5-0.5,1.1-0.9,1.8-1.2c0.7-0.4,1.4-0.7,2.1-0.9
			c0.7-0.3,1.4-0.4,2.1-0.6c0.7-0.1,1.4-0.2,2-0.2c1.1,0,2.1,0.2,2.9,0.5c0.8,0.3,1.4,0.7,1.9,1.3c0.5,0.6,0.9,1.3,1.1,2.1
			c0.2,0.8,0.3,1.7,0.3,2.8c0,0.7,0,1.5-0.1,2.3c-0.1,0.8-0.1,1.7-0.2,2.7c-0.1,0.9-0.1,1.9-0.2,2.9s-0.1,2-0.1,2.9
			c0,1.5,0.3,2.7,0.9,3.5c0.6,0.8,1.3,1.2,2.3,1.2c0.8,0,1.7-0.3,2.8-0.9l0.5,0.7c-0.7,0.7-1.5,1.3-2.3,1.6
			c-0.8,0.4-1.7,0.6-2.7,0.6c-0.7,0-1.3-0.1-1.9-0.4c-0.6-0.2-1.1-0.6-1.5-1.1c-0.4-0.5-0.8-1.1-1-1.8c-0.2-0.7-0.4-1.5-0.4-2.5
			c0-0.3,0-0.6,0-0.8c0-0.3,0.1-0.6,0.1-0.9h-0.1c-0.5,0.9-1,1.8-1.6,2.7c-0.6,0.9-1.3,1.7-2,2.4s-1.5,1.3-2.3,1.7
			c-0.8,0.4-1.7,0.7-2.6,0.7c-0.7,0-1.4-0.1-2-0.4c-0.6-0.3-1.1-0.6-1.6-1.1s-0.8-1-1-1.6s-0.4-1.3-0.4-2c0-0.9,0.2-1.8,0.5-2.6
			c0.3-0.8,0.8-1.5,1.4-2.1c0.6-0.6,1.4-1.1,2.2-1.6c0.9-0.4,1.8-0.8,2.8-1.1c1-0.3,2.1-0.5,3.2-0.7s2.3-0.2,3.4-0.2
			c0.1-0.7,0.1-1.3,0.2-2S184.7,26.8,184.7,26z M174.8,37.1c0,0.4,0,0.8,0.1,1.2c0.1,0.4,0.2,0.7,0.4,1s0.5,0.5,0.8,0.7
			s0.7,0.2,1.1,0.2c0.5,0,1-0.1,1.5-0.3c0.5-0.2,1-0.5,1.5-0.9c0.5-0.4,1-0.9,1.4-1.4c0.5-0.6,0.9-1.2,1.2-1.8
			c0.4-0.7,0.7-1.3,0.9-2.1s0.4-1.5,0.5-2.2c-0.8,0-1.6,0.1-2.4,0.2c-0.8,0.1-1.5,0.2-2.2,0.4c-0.7,0.2-1.4,0.4-2,0.7
			c-0.6,0.3-1.1,0.6-1.6,1c-0.4,0.4-0.8,0.9-1,1.5C174.9,35.7,174.8,36.3,174.8,37.1z"/>
		<path class="st1" d="M208.2,26c0.3-0.6,0.5-1.2,0.5-1.8c0-0.4-0.1-0.8-0.2-1.2c-0.1-0.4-0.4-0.7-0.7-1c-0.3-0.3-0.7-0.5-1.1-0.7
			c-0.4-0.2-0.9-0.2-1.5-0.2c-0.8,0-1.6,0.1-2.3,0.4c-0.7,0.3-1.3,0.7-1.8,1.2c-0.5,0.5-0.9,1.1-1.3,1.8c-0.4,0.7-0.7,1.4-0.9,2.2
			c-0.2,0.8-0.4,1.6-0.5,2.4c-0.1,0.8-0.2,1.6-0.2,2.4c0,1.4,0.2,2.6,0.5,3.8c0.4,1.1,0.8,2.1,1.5,2.9c0.6,0.8,1.3,1.4,2.1,1.9
			c0.8,0.4,1.7,0.7,2.6,0.7c1,0,2-0.3,3-0.8c1-0.5,2-1.3,2.9-2.5c0.1,0,0.1,0.1,0.2,0.1c0.1,0.1,0.2,0.1,0.3,0.2
			c0.1,0.1,0.2,0.2,0.2,0.2c0.1,0.1,0.1,0.1,0.1,0.2c0,0,0,0.1,0,0.1l0,0.1c-1,1.7-2.3,2.9-3.7,3.8c-1.5,0.8-3.1,1.3-4.8,1.3
			c-0.9,0-1.8-0.1-2.6-0.4c-0.8-0.3-1.5-0.6-2.2-1.1c-0.6-0.5-1.2-1-1.7-1.7s-0.9-1.3-1.2-2.1s-0.6-1.5-0.7-2.3
			c-0.2-0.8-0.2-1.6-0.2-2.5c0-1.1,0.1-2.3,0.4-3.4s0.6-2.2,1.1-3.3s1.1-2,1.7-2.9c0.7-0.9,1.5-1.7,2.3-2.4c0.9-0.7,1.8-1.2,2.9-1.6
			c1-0.4,2.1-0.6,3.3-0.6c0.9,0,1.7,0.1,2.5,0.3c0.8,0.2,1.4,0.5,2,0.9c0.6,0.4,1,0.9,1.3,1.4c0.3,0.6,0.5,1.2,0.5,1.8
			c0,0.4-0.1,0.8-0.2,1.2c-0.1,0.3-0.3,0.6-0.6,0.9s-0.5,0.4-0.9,0.5c-0.3,0.1-0.7,0.2-1.1,0.2c-0.2,0-0.5,0-0.7-0.1
			c-0.3,0-0.5-0.1-0.7-0.2L208.2,26z"/>
		<path class="st1" d="M219.8,34c0.8-2.7,1.7-5,2.6-6.9s1.9-3.4,2.8-4.6c1-1.2,1.9-2,2.9-2.5s1.9-0.8,2.7-0.8c0.6,0,1.2,0.1,1.7,0.3
			c0.6,0.2,1.1,0.6,1.5,1.1s0.8,1.1,1,1.9s0.4,1.7,0.4,2.7c0,0.3,0,0.8-0.1,1.3c0,0.6-0.1,1.2-0.1,1.8s-0.1,1.4-0.2,2.1
			c-0.1,0.8-0.1,1.5-0.2,2.2c-0.1,0.7-0.1,1.4-0.1,2.1c0,0.7-0.1,1.2-0.1,1.7c0,0.8,0,1.5,0.1,2c0.1,0.5,0.2,0.9,0.3,1.2
			c0.2,0.3,0.4,0.5,0.6,0.6c0.3,0.1,0.6,0.2,1,0.2c0.6,0,1.1-0.1,1.7-0.2c0.6-0.2,1.2-0.4,1.8-0.7l0.3,0.8c-0.4,0.3-0.9,0.6-1.5,0.9
			c-0.6,0.3-1.2,0.6-1.9,0.9c-0.6,0.3-1.3,0.5-1.9,0.7c-0.6,0.2-1.2,0.2-1.7,0.2c-0.6,0-1-0.2-1.4-0.5c-0.3-0.3-0.6-0.7-0.7-1.3
			c-0.2-0.5-0.3-1.2-0.3-1.9c0-0.7-0.1-1.5-0.1-2.3c0-1,0-2,0.1-3.1c0.1-1.1,0.1-2.1,0.2-3.1c0.1-1,0.2-1.9,0.2-2.7
			c0.1-0.8,0.1-1.5,0.1-2c0-1.2-0.2-2.1-0.7-2.7s-1.1-0.9-1.9-0.9c-0.6,0-1.3,0.3-2,0.8c-0.7,0.5-1.4,1.2-2.1,2.2
			c-0.7,0.9-1.3,2-2,3.2c-0.6,1.2-1.2,2.6-1.7,4.1c-0.5,1.5-0.9,3-1.3,4.6c-0.3,1.6-0.5,3.2-0.6,4.8l-3.4,0.4l-0.3,0
			c0.1-1.3,0.1-2.7,0.2-4.2c0.1-1.5,0.2-3.1,0.3-4.9c0.1-1.7,0.2-3.5,0.3-5.4c0.1-1.9,0.2-3.8,0.3-5.7c0.1-1.9,0.2-3.9,0.3-5.8
			c0.1-2,0.2-3.9,0.3-5.8c0.1-1.9,0.2-3.8,0.3-5.6s0.2-3.6,0.3-5.3c0-0.3,0.1-0.5,0.2-0.7c0.1-0.2,0.3-0.3,0.5-0.5
			c0.2-0.1,0.5-0.2,0.7-0.2s0.6-0.1,0.9-0.1c0.6,0,1.3,0.2,2,0.5c-0.2,2.2-0.5,4.2-0.7,6c-0.2,1.8-0.4,3.5-0.5,5.1
			c-0.2,1.6-0.3,3-0.4,4.4c-0.1,1.4-0.2,2.6-0.3,3.9c-0.1,1.2-0.2,2.4-0.3,3.6c-0.1,1.2-0.2,2.4-0.3,3.6c-0.1,1.2-0.2,2.5-0.3,3.8
			C219.9,31.1,219.8,32.5,219.8,34L219.8,34z"/>
		<path class="st1" d="M248.1,42.7c-0.3-1-0.6-2.1-0.9-3.2c-0.3-1.1-0.6-2.2-1-3.4c-0.3-1.1-0.7-2.2-1-3.3c-0.3-1.1-0.6-2.1-0.9-3.1
			c-0.3-1-0.6-1.9-0.9-2.7c-0.3-0.8-0.5-1.6-0.7-2.2c-0.2-0.6-0.4-1.1-0.7-1.6c-0.2-0.4-0.4-0.7-0.7-0.9s-0.5-0.4-0.7-0.5
			c-0.2-0.1-0.5-0.1-0.8-0.1c-0.3,0-0.7,0-1.1,0.1c-0.4,0.1-0.9,0.2-1.4,0.3l-0.2-1.2c0.6-0.2,1.3-0.5,1.9-0.6s1.2-0.4,1.7-0.5
			c0.5-0.1,1-0.2,1.4-0.3c0.4-0.1,0.7-0.1,1-0.1c0.3,0,0.5,0,0.8,0.1c0.3,0.1,0.5,0.3,0.7,0.5s0.5,0.6,0.7,1s0.5,1,0.7,1.6
			c0.1,0.4,0.3,0.9,0.5,1.6s0.4,1.4,0.7,2.2c0.2,0.8,0.5,1.7,0.8,2.6s0.6,1.9,0.8,3s0.6,2.1,0.8,3.2s0.5,2.2,0.8,3.2
			c0.5-1.4,1.1-2.9,1.7-4.4c0.6-1.5,1.2-3.1,1.8-4.6c0.6-1.5,1.2-3.1,1.8-4.6c0.6-1.5,1.2-3,1.7-4.3c0.1-0.2,0.2-0.4,0.4-0.6
			c0.2-0.1,0.4-0.3,0.6-0.4c0.2-0.1,0.4-0.2,0.6-0.2s0.4-0.1,0.7-0.1c0.4,0,0.7,0.1,1,0.2c0.3,0.1,0.6,0.2,0.9,0.4
			c-0.5,0.8-1,1.7-1.5,2.6c-0.5,1-1.1,2-1.6,3.1c-0.5,1.1-1.1,2.2-1.6,3.4c-0.6,1.2-1.1,2.4-1.6,3.6s-1.1,2.5-1.6,3.7
			c-0.5,1.2-1,2.5-1.5,3.7c-0.5,1.2-1,2.4-1.4,3.6c-0.5,1.2-0.9,2.3-1.3,3.4c-0.4,1.1-0.8,2.2-1.3,3.2s-0.8,2-1.3,2.9
			c-0.4,0.8-0.8,1.6-1.3,2.3c-0.5,0.7-1,1.3-1.5,1.8c-0.6,0.5-1.2,0.9-1.8,1.2s-1.4,0.5-2.2,0.5c-0.5,0-1-0.1-1.4-0.2
			c-0.4-0.1-0.8-0.3-1-0.5c-0.3-0.2-0.5-0.5-0.7-0.8c-0.2-0.3-0.2-0.6-0.2-0.9c0-0.4,0.1-0.7,0.3-1.1c0.2-0.4,0.5-0.7,0.8-0.9
			c0.5,0.3,0.9,0.5,1.4,0.6s0.9,0.2,1.2,0.2c0.9,0,1.7-0.2,2.3-0.7c0.7-0.5,1.3-1.2,1.9-2.1c0.6-1,1.2-2.1,1.8-3.6
			c0.6-1.4,1.3-3.1,2-5l0.3-0.9L248.1,42.7z"/>
		<path class="st4" d="M278,10.6c0-0.5,0-0.8-0.1-1.2c-0.1-0.3-0.2-0.6-0.4-0.8s-0.4-0.4-0.8-0.5c-0.3-0.1-0.8-0.1-1.3-0.1
			c-0.7,0-1.6,0.1-2.7,0.2l-0.2-1.4c1-0.2,2-0.4,3.2-0.6s2.3-0.4,3.5-0.5c1.2-0.2,2.4-0.3,3.7-0.4c1.2-0.1,2.4-0.2,3.6-0.2
			c0.9,0,1.8,0,2.7,0.1c0.9,0.1,1.8,0.3,2.6,0.5c0.8,0.2,1.5,0.5,2.2,0.9c0.7,0.4,1.3,0.8,1.8,1.4c0.5,0.5,0.9,1.2,1.2,1.9
			s0.4,1.6,0.4,2.6c0,1.4-0.2,2.6-0.7,3.7c-0.5,1.1-1.2,2-2,2.8c-0.8,0.8-1.8,1.5-2.9,2c-1.1,0.5-2.3,1-3.5,1.3v0.1
			c1.6,0.1,3.1,0.4,4.5,0.8c1.4,0.4,2.5,1,3.5,1.8c1,0.8,1.8,1.7,2.3,2.9c0.6,1.1,0.8,2.5,0.8,4c0,1.3-0.2,2.5-0.5,3.5
			c-0.4,1.1-0.9,2-1.5,2.8c-0.6,0.8-1.4,1.5-2.2,2.1c-0.9,0.6-1.8,1.1-2.8,1.4c-1,0.4-2.1,0.7-3.2,0.8c-1.1,0.2-2.2,0.3-3.4,0.3
			c-0.9,0-1.8-0.1-2.7-0.2c-0.9-0.1-1.8-0.2-2.8-0.4l-3.1,0.4l-0.3,0c0.1-1.4,0.3-2.9,0.4-4.6c0.1-1.6,0.2-3.4,0.3-5.1
			s0.2-3.6,0.2-5.5c0.1-1.9,0.1-3.8,0.2-5.7c0-1.9,0.1-3.8,0.1-5.7S278,12.4,278,10.6z M281,40.5c0.8,0.2,1.6,0.3,2.3,0.4
			c0.7,0.1,1.5,0.1,2.2,0.1c1.3,0,2.6-0.2,3.7-0.5s2.2-0.8,3-1.5s1.5-1.6,2-2.7s0.7-2.4,0.7-3.9c0-1.4-0.2-2.7-0.7-3.8
			c-0.5-1.1-1.2-2-2.1-2.7c-0.9-0.7-2.1-1.3-3.5-1.6c-1.4-0.4-2.9-0.5-4.7-0.5c-0.3,0-0.7,0-1.1,0c-0.4,0-0.7,0-1.1,0.1
			c0,0.7,0,1.4-0.1,2.3c0,0.9-0.1,1.8-0.1,2.8c0,1-0.1,2-0.1,3.1s-0.1,2.1-0.2,3.1c-0.1,1-0.1,2-0.2,2.9C281.1,39,281,39.8,281,40.5
			z M282.2,7.3c0,0.7,0,1.6,0,2.6c0,1,0,2.1-0.1,3.4s-0.1,2.6-0.1,4.1c0,1.5-0.1,3-0.1,4.7c0.9,0,1.9-0.1,2.8-0.2
			c0.9-0.1,1.8-0.3,2.6-0.6c0.8-0.3,1.6-0.6,2.3-1.1s1.3-1,1.8-1.6c0.5-0.6,0.9-1.3,1.2-2.1c0.3-0.8,0.4-1.8,0.4-2.8
			c0-1.2-0.2-2.3-0.6-3.1c-0.4-0.8-0.9-1.5-1.6-2s-1.5-0.9-2.4-1.1s-1.9-0.3-3-0.3c-0.5,0-1,0-1.6,0.1
			C283.3,7.2,282.7,7.2,282.2,7.3z"/>
		<path class="st4" d="M302.8,33.3c0-1.1,0.1-2.2,0.3-3.3s0.6-2.2,1-3.2s1-2,1.6-2.9c0.6-0.9,1.4-1.7,2.2-2.4
			c0.8-0.7,1.8-1.2,2.8-1.6c1-0.4,2.2-0.6,3.4-0.6c1.4,0,2.6,0.3,3.6,0.9c1.1,0.6,1.9,1.3,2.7,2.3s1.3,2,1.6,3.2
			c0.4,1.2,0.6,2.5,0.6,3.7c0,1.1-0.1,2.2-0.3,3.3c-0.2,1.1-0.6,2.2-1,3.2s-1,2-1.6,2.9c-0.6,0.9-1.4,1.7-2.2,2.4
			c-0.8,0.7-1.8,1.2-2.8,1.6c-1,0.4-2.2,0.6-3.4,0.6c-1.4,0-2.6-0.3-3.6-0.9c-1.1-0.6-1.9-1.3-2.7-2.3c-0.7-0.9-1.3-2-1.6-3.2
			C303,35.8,302.8,34.6,302.8,33.3z M306.6,31.8c0,0.7,0.1,1.5,0.2,2.2c0.1,0.8,0.3,1.5,0.5,2.2c0.2,0.7,0.5,1.3,0.9,2
			c0.3,0.6,0.8,1.1,1.2,1.6s1,0.8,1.6,1.1c0.6,0.3,1.3,0.4,2,0.4c0.8,0,1.5-0.2,2.1-0.5s1.1-0.8,1.5-1.3c0.4-0.6,0.8-1.2,1.1-1.9
			c0.3-0.7,0.5-1.5,0.7-2.2s0.3-1.5,0.4-2.3c0.1-0.8,0.1-1.4,0.1-2.1c0-0.7-0.1-1.5-0.2-2.2c-0.1-0.7-0.3-1.5-0.5-2.2
			s-0.5-1.3-0.9-1.9c-0.3-0.6-0.8-1.1-1.2-1.6s-1-0.8-1.6-1.1c-0.6-0.3-1.3-0.4-2-0.4c-0.8,0-1.5,0.2-2.1,0.5
			c-0.6,0.3-1.1,0.8-1.5,1.3s-0.8,1.2-1.1,1.9c-0.3,0.7-0.5,1.5-0.7,2.2c-0.2,0.8-0.3,1.5-0.4,2.3C306.7,30.5,306.6,31.2,306.6,31.8
			z"/>
		<path class="st4" d="M349.3-0.6c-0.4,2.7-0.8,5.5-1.1,8.4c-0.4,2.9-0.7,5.7-0.9,8.5c-0.3,2.8-0.5,5.6-0.6,8.4
			c-0.2,2.7-0.2,5.4-0.2,7.9c0,1.2,0,2.3,0,3.1c0,0.9,0.1,1.6,0.1,2.2c0.1,0.6,0.1,1.1,0.2,1.4c0.1,0.4,0.2,0.6,0.4,0.8
			c0.2,0.2,0.3,0.3,0.5,0.4c0.2,0.1,0.4,0.1,0.7,0.1c0.5,0,1.1-0.1,1.7-0.2c0.6-0.2,1.2-0.4,1.8-0.7l0.3,0.8
			c-0.4,0.3-0.9,0.6-1.5,0.9c-0.6,0.3-1.2,0.6-1.8,0.9c-0.6,0.3-1.3,0.5-1.9,0.7c-0.6,0.2-1.1,0.2-1.6,0.2c-0.3,0-0.6,0-0.9-0.1
			s-0.5-0.2-0.6-0.4s-0.3-0.4-0.5-0.7c-0.1-0.3-0.2-0.7-0.3-1.2c-0.1-0.6-0.2-1.4-0.2-2.3c-0.1-0.9-0.1-1.8-0.1-2.8
			c0-1.1,0-2.2,0.1-3.3c0.1-1.1,0.2-2.2,0.4-3.3l-0.1,0c-0.8,2.2-1.7,4.1-2.7,5.9c-1,1.8-2,3.3-3,4.5s-2.1,2.2-3.1,2.9
			c-1,0.7-2,1-3,1c-1,0-1.8-0.2-2.5-0.7c-0.7-0.5-1.3-1.1-1.7-1.9c-0.4-0.8-0.8-1.7-1-2.8c-0.2-1-0.3-2.1-0.3-3.2
			c0-1.3,0.1-2.6,0.4-3.9c0.3-1.3,0.7-2.5,1.2-3.6c0.5-1.1,1.2-2.2,2-3.2c0.8-1,1.6-1.8,2.6-2.5s2-1.3,3.1-1.7
			c1.1-0.4,2.3-0.6,3.5-0.6c0.8,0,1.7,0.1,2.5,0.3c0.8,0.2,1.7,0.6,2.5,1.1c0.1-1.8,0.1-3.7,0.2-5.6c0.1-1.9,0.2-3.7,0.3-5.5
			c0.1-1.8,0.2-3.5,0.4-5c0.1-1.6,0.3-3,0.4-4.2c0-0.3,0.1-0.5,0.3-0.7s0.3-0.3,0.5-0.5c0.2-0.1,0.5-0.2,0.7-0.2
			c0.3-0.1,0.5-0.1,0.8-0.1C347.9-1.1,348.6-0.9,349.3-0.6z M343.6,22.1c-1.4-0.7-2.9-1-4.3-1c-1,0-2,0.2-2.9,0.5
			c-0.9,0.3-1.7,0.8-2.4,1.4c-0.7,0.6-1.3,1.3-1.8,2.1c-0.5,0.8-1,1.6-1.3,2.5c-0.3,0.9-0.6,1.8-0.8,2.8c-0.2,1-0.3,1.9-0.3,2.9
			c0,0.3,0,0.7,0,1.2c0,0.4,0.1,0.9,0.2,1.4c0.1,0.5,0.2,0.9,0.4,1.4c0.1,0.5,0.3,0.9,0.6,1.2c0.2,0.4,0.5,0.7,0.8,0.9
			c0.3,0.2,0.7,0.3,1.1,0.3c0.8,0,1.6-0.3,2.4-0.9c0.8-0.6,1.6-1.3,2.4-2.3s1.5-2,2.2-3.3c0.7-1.2,1.3-2.5,1.8-3.8
			c0.5-1.3,1-2.6,1.3-3.9C343.3,24.2,343.5,23.1,343.6,22.1z"/>
		<path class="st4" d="M360.2,19.9c-0.2,1.2-0.3,2.4-0.5,3.7c-0.1,1.2-0.2,2.4-0.3,3.6c-0.1,1.1-0.1,2.2-0.2,3.3s-0.1,1.9-0.1,2.8
			c0,1.1,0,2.1,0,2.9c0,0.8,0.1,1.5,0.2,2c0.1,0.5,0.2,1,0.3,1.3c0.1,0.3,0.3,0.6,0.4,0.8c0.2,0.2,0.4,0.3,0.6,0.3
			c0.2,0.1,0.5,0.1,0.7,0.1c0.5,0,1.1-0.1,1.7-0.2c0.6-0.2,1.2-0.4,1.8-0.7l0.3,0.8c-0.4,0.3-0.9,0.6-1.5,0.9
			c-0.6,0.3-1.2,0.6-1.8,0.9c-0.6,0.3-1.3,0.5-1.9,0.7c-0.6,0.2-1.1,0.2-1.6,0.2c-0.3,0-0.6,0-0.8-0.1c-0.2,0-0.5-0.2-0.7-0.4
			c-0.2-0.2-0.4-0.5-0.5-0.9c-0.2-0.4-0.3-0.9-0.4-1.5c-0.1-0.6-0.2-1.4-0.2-2.4s-0.1-2.1-0.1-3.5c0-0.8,0-1.7,0-2.7
			c0-1,0-2.1,0.1-3.3s0.1-2.4,0.1-3.7c0.1-1.3,0.1-2.6,0.2-4c0-0.3,0.1-0.5,0.2-0.7c0.1-0.2,0.3-0.3,0.5-0.4
			c0.2-0.1,0.4-0.2,0.7-0.2c0.2,0,0.4-0.1,0.6-0.1C358.9,19.4,359.5,19.6,360.2,19.9z M358.8,12.7c-0.4,0-0.7-0.1-1-0.2
			c-0.3-0.2-0.5-0.4-0.7-0.6s-0.4-0.5-0.5-0.9c-0.1-0.3-0.2-0.7-0.2-1c0-0.5,0.1-0.9,0.2-1.3c0.2-0.4,0.4-0.7,0.6-0.9
			s0.5-0.4,0.9-0.6c0.3-0.1,0.6-0.2,0.9-0.2c0.4,0,0.7,0.1,1,0.2c0.3,0.1,0.5,0.3,0.7,0.6s0.4,0.5,0.5,0.8c0.1,0.3,0.2,0.6,0.2,1
			c0,0.4-0.1,0.7-0.2,1.1c-0.1,0.4-0.3,0.7-0.5,1c-0.2,0.3-0.5,0.5-0.8,0.7C359.5,12.6,359.2,12.7,358.8,12.7z"/>
		<path class="st4" d="M382.8,37.6c0.1,0,0.1,0.1,0.3,0.1c0.1,0.1,0.2,0.1,0.3,0.2c0.1,0.1,0.2,0.1,0.2,0.2c0.1,0.1,0.1,0.2,0.1,0.2
			c0,0,0,0.1,0,0.1c-0.6,0.8-1.2,1.6-1.9,2.2c-0.7,0.6-1.4,1.1-2.2,1.5s-1.5,0.7-2.3,0.9c-0.8,0.2-1.5,0.3-2.3,0.3
			c-1.3,0-2.5-0.3-3.5-0.8c-1.1-0.5-2-1.2-2.8-2.2c-0.8-0.9-1.4-2-1.8-3.2c-0.4-1.2-0.7-2.5-0.7-3.9c0-1.1,0.1-2.3,0.4-3.4
			c0.3-1.1,0.6-2.2,1.1-3.3c0.5-1,1.1-2,1.7-2.9c0.7-0.9,1.5-1.7,2.3-2.3c0.9-0.7,1.8-1.2,2.9-1.6c1-0.4,2.2-0.6,3.4-0.6
			c0.8,0,1.5,0.1,2.3,0.3c0.7,0.2,1.3,0.5,1.9,0.9c0.5,0.4,1,0.9,1.3,1.5c0.3,0.6,0.5,1.3,0.5,2c0,1.1-0.4,2-1.1,2.9s-1.7,1.5-3,2.1
			c-1.3,0.6-2.7,1-4.4,1.4c-1.7,0.3-3.5,0.6-5.5,0.8v0.3c0,1.4,0.2,2.6,0.5,3.8c0.3,1.1,0.8,2.1,1.4,2.9c0.6,0.8,1.3,1.4,2.2,1.9
			c0.8,0.5,1.7,0.7,2.7,0.7c1,0,2-0.2,3-0.7C380.7,39.4,381.8,38.6,382.8,37.6z M379.8,24.7c0-0.5-0.1-1-0.2-1.4
			c-0.2-0.4-0.4-0.8-0.7-1.1c-0.3-0.3-0.6-0.6-1.1-0.7c-0.4-0.2-0.8-0.3-1.3-0.3c-0.7,0-1.3,0.1-1.9,0.4c-0.6,0.2-1.1,0.6-1.5,1
			c-0.5,0.4-0.8,0.9-1.2,1.5c-0.3,0.6-0.6,1.2-0.9,1.8c-0.2,0.6-0.4,1.3-0.6,1.9c-0.2,0.7-0.3,1.3-0.3,1.9c1.5-0.1,2.9-0.3,4.1-0.6
			s2.2-0.6,3.1-1c0.8-0.4,1.5-0.9,1.9-1.5S379.8,25.4,379.8,24.7z"/>
		<path class="st4" d="M389.2,36.8c0.1,0.8,0.3,1.5,0.7,2.1c0.4,0.6,0.8,1.1,1.3,1.4s1.1,0.7,1.7,0.8c0.6,0.2,1.3,0.3,1.9,0.3
			c0.6,0,1.2-0.1,1.7-0.2s1-0.4,1.4-0.7s0.8-0.7,1-1.1s0.4-0.9,0.4-1.5c0-0.6-0.1-1.1-0.4-1.5c-0.3-0.4-0.6-0.8-1.1-1.2
			c-0.5-0.4-1-0.7-1.6-1c-0.6-0.3-1.2-0.6-1.9-0.9c-0.6-0.3-1.1-0.5-1.7-0.8s-1.1-0.6-1.7-0.9c-0.5-0.3-1-0.7-1.5-1
			c-0.5-0.4-0.9-0.8-1.2-1.2c-0.3-0.5-0.6-1-0.8-1.5c-0.2-0.6-0.3-1.2-0.3-1.9c0-0.7,0.1-1.4,0.4-2c0.3-0.6,0.6-1.2,1.1-1.7
			c0.4-0.5,1-0.9,1.5-1.3c0.6-0.4,1.2-0.7,1.9-0.9c0.7-0.3,1.3-0.4,2-0.6s1.4-0.2,2-0.2c0.9,0,1.7,0.1,2.4,0.3
			c0.8,0.2,1.4,0.5,2,0.8s1,0.8,1.4,1.3c0.3,0.5,0.5,1.1,0.5,1.7c0,0.2,0,0.5-0.1,0.8c-0.1,0.3-0.2,0.6-0.4,0.8
			c-0.2,0.3-0.5,0.5-0.8,0.6c-0.3,0.2-0.7,0.3-1.2,0.3c-0.5,0-0.9-0.1-1.4-0.2l0-0.2c0.1-0.3,0.3-0.7,0.3-0.9s0.1-0.6,0.1-0.8
			c0-0.5-0.1-0.9-0.4-1.2c-0.2-0.3-0.5-0.6-0.9-0.8c-0.4-0.2-0.8-0.4-1.2-0.5c-0.4-0.1-0.9-0.1-1.3-0.1c-0.8,0-1.4,0.1-2,0.3
			c-0.6,0.2-1.1,0.5-1.5,0.8c-0.4,0.3-0.7,0.7-0.9,1.1c-0.2,0.4-0.3,0.9-0.3,1.3c0,0.6,0.2,1.1,0.5,1.6c0.3,0.5,0.7,0.9,1.2,1.3
			c0.5,0.4,1.1,0.8,1.8,1.1c0.7,0.3,1.4,0.7,2.1,1c0.8,0.4,1.6,0.8,2.4,1.2c0.8,0.4,1.5,0.9,2.2,1.4c0.6,0.5,1.1,1.1,1.5,1.8
			s0.6,1.5,0.6,2.4c0,1.1-0.2,2.1-0.7,2.9c-0.5,0.9-1.1,1.6-2,2.2c-0.8,0.6-1.8,1-2.8,1.3c-1.1,0.3-2.2,0.5-3.3,0.5
			c-0.6,0-1.2,0-1.8-0.1s-1.2-0.2-1.8-0.4c-0.6-0.2-1.1-0.4-1.6-0.6c-0.5-0.3-1-0.5-1.3-0.9c-0.4-0.3-0.7-0.7-0.9-1.1
			c-0.2-0.4-0.3-0.8-0.3-1.3c0-0.4,0.1-0.8,0.3-1.1c0.2-0.3,0.4-0.5,0.7-0.7s0.6-0.3,1-0.4s0.7-0.1,1.1-0.2L389.2,36.8z"/>
	</g>
</g>
<g id="Layer_2">
	<rect class="st0" width="438" height="78"/>
	<path class="st5" d="M113.4,27.2c0-0.3,0-0.6-0.1-0.8c-0.1-0.2-0.1-0.4-0.3-0.6c-0.1-0.1-0.3-0.2-0.5-0.3c-0.2-0.1-0.5-0.1-0.9-0.1
		c-0.5,0-1.1,0.1-1.9,0.2l-0.1-1c0.7-0.1,1.4-0.3,2.2-0.4c0.8-0.1,1.6-0.3,2.5-0.4c0.9-0.1,1.7-0.2,2.6-0.3c0.9-0.1,1.7-0.1,2.5-0.1
		c0.7,0,1.3,0,1.9,0.1c0.6,0.1,1.2,0.2,1.8,0.3c0.6,0.2,1.1,0.4,1.6,0.6c0.5,0.3,0.9,0.6,1.2,1c0.3,0.4,0.6,0.8,0.8,1.4
		c0.2,0.5,0.3,1.1,0.3,1.8c0,1-0.2,1.8-0.5,2.6c-0.3,0.8-0.8,1.4-1.4,2c-0.6,0.6-1.3,1-2.1,1.4c-0.8,0.4-1.6,0.7-2.4,0.9v0.1
		c1.1,0.1,2.2,0.3,3.1,0.6c1,0.3,1.8,0.7,2.5,1.3c0.7,0.5,1.2,1.2,1.6,2c0.4,0.8,0.6,1.7,0.6,2.8c0,0.9-0.1,1.7-0.4,2.5
		c-0.3,0.7-0.6,1.4-1,2c-0.4,0.6-1,1.1-1.6,1.5c-0.6,0.4-1.3,0.7-2,1c-0.7,0.3-1.5,0.5-2.2,0.6c-0.8,0.1-1.6,0.2-2.4,0.2
		c-0.7,0-1.3,0-1.9-0.1c-0.6-0.1-1.3-0.2-1.9-0.3l-2.2,0.3l-0.2,0c0.1-1,0.2-2.1,0.3-3.2c0.1-1.2,0.1-2.4,0.2-3.6
		c0.1-1.3,0.1-2.5,0.2-3.9c0-1.3,0.1-2.7,0.1-4c0-1.3,0-2.7,0.1-4C113.4,29.8,113.4,28.5,113.4,27.2z M115.5,48.2
		c0.6,0.1,1.1,0.2,1.6,0.3c0.5,0.1,1,0.1,1.5,0.1c0.9,0,1.8-0.1,2.6-0.3s1.5-0.6,2.1-1.1s1.1-1.1,1.4-1.9c0.3-0.8,0.5-1.7,0.5-2.8
		c0-1-0.2-1.9-0.5-2.6c-0.3-0.8-0.8-1.4-1.5-1.9c-0.7-0.5-1.5-0.9-2.4-1.1c-1-0.3-2.1-0.4-3.3-0.4c-0.2,0-0.5,0-0.7,0
		c-0.3,0-0.5,0-0.8,0c0,0.5,0,1-0.1,1.6c0,0.6,0,1.3-0.1,2c0,0.7-0.1,1.4-0.1,2.2c0,0.7-0.1,1.5-0.1,2.2c0,0.7-0.1,1.4-0.1,2
		C115.5,47.1,115.5,47.7,115.5,48.2z M116.3,24.9c0,0.5,0,1.1,0,1.8c0,0.7,0,1.5-0.1,2.4c0,0.9,0,1.8-0.1,2.9c0,1-0.1,2.1-0.1,3.3
		c0.7,0,1.3-0.1,1.9-0.2c0.6-0.1,1.3-0.2,1.8-0.4c0.6-0.2,1.1-0.4,1.6-0.7c0.5-0.3,0.9-0.7,1.3-1.1c0.4-0.4,0.7-0.9,0.9-1.5
		c0.2-0.6,0.3-1.2,0.3-2c0-0.9-0.1-1.6-0.4-2.2c-0.3-0.6-0.7-1.1-1.1-1.4c-0.5-0.4-1.1-0.6-1.7-0.8c-0.7-0.2-1.3-0.2-2.1-0.2
		c-0.4,0-0.7,0-1.1,0C117.1,24.8,116.7,24.9,116.3,24.9z"/>
	<path class="st5" d="M142.3,46.1c0,0,0.1,0.1,0.2,0.1c0.1,0,0.1,0.1,0.2,0.1c0.1,0,0.1,0.1,0.2,0.2c0,0.1,0.1,0.1,0.1,0.2
		c0,0,0,0.1,0,0.1c-0.4,0.6-0.9,1.1-1.4,1.5c-0.5,0.4-1,0.8-1.5,1.1c-0.5,0.3-1.1,0.5-1.6,0.6c-0.5,0.1-1.1,0.2-1.6,0.2
		c-0.9,0-1.7-0.2-2.5-0.6c-0.8-0.4-1.4-0.9-1.9-1.5c-0.5-0.6-1-1.4-1.3-2.3c-0.3-0.9-0.5-1.8-0.5-2.8c0-0.8,0.1-1.6,0.3-2.4
		c0.2-0.8,0.4-1.6,0.8-2.3c0.3-0.7,0.7-1.4,1.2-2c0.5-0.6,1-1.2,1.6-1.6c0.6-0.5,1.3-0.8,2-1.1c0.7-0.3,1.5-0.4,2.4-0.4
		c0.6,0,1.1,0.1,1.6,0.2c0.5,0.2,0.9,0.4,1.3,0.6c0.4,0.3,0.7,0.6,0.9,1c0.2,0.4,0.3,0.9,0.3,1.4c0,0.8-0.3,1.4-0.8,2
		c-0.5,0.6-1.2,1.1-2.1,1.5c-0.9,0.4-1.9,0.7-3.1,1c-1.2,0.2-2.5,0.4-3.9,0.5v0.2c0,1,0.1,1.8,0.4,2.6c0.2,0.8,0.6,1.5,1,2
		c0.4,0.6,0.9,1,1.5,1.3c0.6,0.3,1.2,0.5,1.9,0.5c0.7,0,1.4-0.2,2.1-0.5C140.9,47.4,141.6,46.9,142.3,46.1z M140.2,37.1
		c0-0.3-0.1-0.7-0.2-1c-0.1-0.3-0.3-0.6-0.5-0.8c-0.2-0.2-0.5-0.4-0.7-0.5c-0.3-0.1-0.6-0.2-0.9-0.2c-0.5,0-0.9,0.1-1.3,0.3
		c-0.4,0.2-0.8,0.4-1.1,0.7c-0.3,0.3-0.6,0.6-0.8,1c-0.2,0.4-0.4,0.8-0.6,1.3c-0.2,0.4-0.3,0.9-0.4,1.4c-0.1,0.5-0.2,0.9-0.2,1.4
		c1.1-0.1,2-0.2,2.9-0.4c0.8-0.2,1.6-0.4,2.1-0.7c0.6-0.3,1-0.6,1.3-1C140,38.1,140.2,37.6,140.2,37.1z"/>
	<path class="st5" d="M154.5,38c0-0.6-0.1-1.1-0.3-1.5c-0.2-0.4-0.5-0.8-0.8-1.1c-0.3-0.3-0.7-0.5-1.1-0.6c-0.4-0.1-0.8-0.2-1.2-0.2
		c-0.5,0-1,0.1-1.4,0.2c-0.4,0.1-0.7,0.3-0.9,0.5c-0.2,0.2-0.4,0.4-0.5,0.7c-0.1,0.3-0.2,0.6-0.2,0.9c0,0.4,0.1,0.7,0.2,1.1
		c0.1,0.4,0.3,0.7,0.6,1.1l0,0.1c-0.4,0.2-0.9,0.3-1.3,0.3c-0.3,0-0.5,0-0.7-0.1c-0.2-0.1-0.4-0.2-0.6-0.3c-0.2-0.2-0.3-0.3-0.4-0.6
		c-0.1-0.2-0.1-0.5-0.1-0.7c0-0.4,0.1-0.9,0.3-1.3c0.2-0.4,0.5-0.7,0.9-1.1c0.4-0.3,0.8-0.6,1.2-0.9c0.5-0.3,0.9-0.5,1.4-0.6
		c0.5-0.2,1-0.3,1.5-0.4c0.5-0.1,1-0.1,1.4-0.1c0.8,0,1.5,0.1,2,0.3c0.6,0.2,1,0.5,1.4,0.9c0.3,0.4,0.6,0.9,0.8,1.5
		c0.2,0.6,0.2,1.2,0.2,1.9c0,0.5,0,1-0.1,1.6c0,0.6-0.1,1.2-0.1,1.9c-0.1,0.7-0.1,1.3-0.1,2c0,0.7-0.1,1.4-0.1,2.1
		c0,1.1,0.2,1.9,0.6,2.4c0.4,0.5,0.9,0.8,1.6,0.8c0.6,0,1.2-0.2,1.9-0.6l0.3,0.5c-0.5,0.5-1.1,0.9-1.6,1.2c-0.6,0.3-1.2,0.4-1.9,0.4
		c-0.5,0-0.9-0.1-1.4-0.2c-0.4-0.2-0.8-0.4-1.1-0.7c-0.3-0.3-0.5-0.7-0.7-1.2c-0.2-0.5-0.2-1.1-0.2-1.7c0-0.2,0-0.4,0-0.6
		c0-0.2,0-0.4,0.1-0.6h-0.1c-0.3,0.6-0.7,1.3-1.1,1.9c-0.4,0.6-0.9,1.2-1.4,1.7c-0.5,0.5-1,0.9-1.6,1.2c-0.6,0.3-1.2,0.5-1.8,0.5
		c-0.5,0-1-0.1-1.4-0.3c-0.4-0.2-0.8-0.4-1.1-0.7c-0.3-0.3-0.5-0.7-0.7-1.1c-0.2-0.4-0.3-0.9-0.3-1.4c0-0.7,0.1-1.3,0.4-1.8
		c0.2-0.5,0.6-1,1-1.5c0.4-0.4,0.9-0.8,1.6-1.1c0.6-0.3,1.3-0.6,2-0.8c0.7-0.2,1.5-0.4,2.2-0.5s1.6-0.2,2.4-0.2
		c0.1-0.5,0.1-0.9,0.1-1.4C154.5,39.1,154.5,38.6,154.5,38z M147.6,45.8c0,0.3,0,0.6,0.1,0.8c0.1,0.3,0.2,0.5,0.3,0.7
		c0.1,0.2,0.3,0.4,0.5,0.5c0.2,0.1,0.5,0.2,0.8,0.2c0.3,0,0.7-0.1,1-0.2c0.4-0.2,0.7-0.4,1.1-0.7c0.3-0.3,0.7-0.6,1-1
		c0.3-0.4,0.6-0.8,0.9-1.3c0.3-0.5,0.5-0.9,0.6-1.4c0.2-0.5,0.3-1,0.3-1.6c-0.6,0-1.1,0.1-1.7,0.1c-0.5,0.1-1.1,0.1-1.6,0.3
		c-0.5,0.1-0.9,0.3-1.4,0.5c-0.4,0.2-0.8,0.4-1.1,0.7c-0.3,0.3-0.5,0.6-0.7,1C147.7,44.8,147.6,45.3,147.6,45.8z"/>
	<path class="st5" d="M171,38c0.2-0.4,0.3-0.8,0.3-1.3c0-0.3-0.1-0.6-0.2-0.8c-0.1-0.3-0.3-0.5-0.5-0.7c-0.2-0.2-0.5-0.4-0.8-0.5
		c-0.3-0.1-0.7-0.2-1.1-0.2c-0.6,0-1.1,0.1-1.6,0.3c-0.5,0.2-0.9,0.5-1.2,0.9c-0.4,0.4-0.7,0.8-0.9,1.3c-0.3,0.5-0.5,1-0.6,1.5
		c-0.2,0.5-0.3,1.1-0.4,1.7c-0.1,0.6-0.1,1.1-0.1,1.7c0,1,0.1,1.9,0.4,2.6c0.3,0.8,0.6,1.5,1,2c0.4,0.6,0.9,1,1.5,1.3
		c0.6,0.3,1.2,0.5,1.8,0.5c0.7,0,1.4-0.2,2.1-0.5c0.7-0.4,1.4-0.9,2-1.7c0,0,0.1,0.1,0.2,0.1c0.1,0,0.1,0.1,0.2,0.1
		c0.1,0.1,0.1,0.1,0.2,0.2c0,0.1,0.1,0.1,0.1,0.1c0,0,0,0,0,0.1l0,0c-0.7,1.2-1.6,2.1-2.6,2.7c-1,0.6-2.1,0.9-3.4,0.9
		c-0.7,0-1.3-0.1-1.8-0.3c-0.6-0.2-1.1-0.4-1.5-0.8c-0.5-0.3-0.8-0.7-1.2-1.2c-0.3-0.4-0.6-0.9-0.9-1.5c-0.2-0.5-0.4-1.1-0.5-1.6
		c-0.1-0.6-0.2-1.2-0.2-1.7c0-0.8,0.1-1.6,0.3-2.4c0.2-0.8,0.4-1.6,0.8-2.3c0.3-0.7,0.7-1.4,1.2-2.1c0.5-0.6,1-1.2,1.6-1.7
		c0.6-0.5,1.3-0.8,2-1.1c0.7-0.3,1.5-0.4,2.3-0.4c0.6,0,1.2,0.1,1.7,0.2c0.5,0.2,1,0.4,1.4,0.6c0.4,0.3,0.7,0.6,0.9,1
		c0.2,0.4,0.3,0.8,0.3,1.3c0,0.3,0,0.6-0.1,0.8c-0.1,0.2-0.2,0.4-0.4,0.6c-0.2,0.2-0.4,0.3-0.6,0.4c-0.2,0.1-0.5,0.1-0.8,0.1
		c-0.2,0-0.3,0-0.5-0.1c-0.2,0-0.4-0.1-0.5-0.2L171,38z"/>
	<path class="st5" d="M179.2,43.6c0.6-1.9,1.2-3.5,1.8-4.8c0.7-1.3,1.3-2.4,2-3.2c0.7-0.8,1.3-1.4,2-1.8c0.7-0.4,1.3-0.6,1.9-0.6
		c0.4,0,0.8,0.1,1.2,0.2c0.4,0.2,0.7,0.4,1,0.8c0.3,0.3,0.5,0.8,0.7,1.3c0.2,0.5,0.3,1.2,0.3,1.9c0,0.2,0,0.5,0,0.9
		c0,0.4-0.1,0.8-0.1,1.3s-0.1,1-0.1,1.5c0,0.5-0.1,1-0.1,1.6c0,0.5-0.1,1-0.1,1.5c0,0.5,0,0.9,0,1.2c0,0.6,0,1.1,0.1,1.4
		c0,0.4,0.1,0.7,0.2,0.9c0.1,0.2,0.3,0.4,0.5,0.4c0.2,0.1,0.4,0.1,0.7,0.1c0.4,0,0.8-0.1,1.2-0.2c0.4-0.1,0.8-0.3,1.3-0.5l0.2,0.6
		c-0.3,0.2-0.6,0.4-1,0.7c-0.4,0.2-0.8,0.4-1.3,0.6c-0.5,0.2-0.9,0.3-1.4,0.5c-0.5,0.1-0.8,0.2-1.2,0.2c-0.4,0-0.7-0.1-1-0.3
		c-0.2-0.2-0.4-0.5-0.5-0.9c-0.1-0.4-0.2-0.8-0.2-1.3c0-0.5-0.1-1-0.1-1.6c0-0.7,0-1.4,0.1-2.2c0-0.7,0.1-1.5,0.2-2.1
		c0.1-0.7,0.1-1.3,0.2-1.9c0-0.6,0.1-1,0.1-1.4c0-0.8-0.2-1.5-0.5-1.9s-0.8-0.6-1.3-0.6c-0.4,0-0.9,0.2-1.4,0.6
		c-0.5,0.4-1,0.9-1.4,1.5c-0.5,0.6-0.9,1.4-1.4,2.3c-0.4,0.9-0.8,1.8-1.2,2.8c-0.4,1-0.6,2.1-0.9,3.2c-0.2,1.1-0.4,2.2-0.4,3.3
		l-2.4,0.3l-0.2,0c0-0.9,0.1-1.9,0.2-2.9c0.1-1.1,0.1-2.2,0.2-3.4c0.1-1.2,0.1-2.5,0.2-3.8c0.1-1.3,0.1-2.6,0.2-4
		c0.1-1.4,0.1-2.7,0.2-4.1c0.1-1.4,0.1-2.7,0.2-4.1c0.1-1.3,0.1-2.7,0.2-3.9c0.1-1.3,0.1-2.5,0.2-3.7c0-0.2,0.1-0.3,0.2-0.5
		c0.1-0.1,0.2-0.2,0.4-0.3c0.2-0.1,0.3-0.1,0.5-0.2s0.4-0.1,0.6-0.1c0.5,0,0.9,0.1,1.4,0.4c-0.2,1.5-0.3,2.9-0.5,4.2
		c-0.1,1.3-0.3,2.5-0.4,3.6c-0.1,1.1-0.2,2.1-0.3,3.1c-0.1,0.9-0.2,1.9-0.2,2.7c-0.1,0.9-0.1,1.7-0.2,2.5c-0.1,0.8-0.1,1.7-0.2,2.5
		c-0.1,0.9-0.1,1.7-0.2,2.7C179.3,41.6,179.2,42.6,179.2,43.6L179.2,43.6z"/>
	<path class="st5" d="M198.4,47.5c-0.2-0.8-0.4-1.6-0.7-2.4c-0.2-0.8-0.5-1.6-0.7-2.3c-0.2-0.8-0.5-1.5-0.7-2.2
		c-0.2-0.7-0.4-1.3-0.6-1.9c-0.2-0.6-0.4-1.1-0.5-1.5c-0.2-0.4-0.3-0.8-0.5-1.1c-0.1-0.3-0.3-0.5-0.5-0.7s-0.3-0.3-0.5-0.3
		c-0.2-0.1-0.4-0.1-0.6-0.1c-0.2,0-0.5,0-0.8,0.1c-0.3,0.1-0.6,0.1-1,0.2l-0.2-0.8c0.5-0.2,0.9-0.3,1.3-0.5c0.4-0.1,0.8-0.3,1.2-0.3
		c0.4-0.1,0.7-0.2,1-0.2c0.3-0.1,0.5-0.1,0.7-0.1c0.2,0,0.4,0,0.6,0.1c0.2,0.1,0.3,0.2,0.5,0.4c0.2,0.2,0.3,0.4,0.5,0.7
		c0.2,0.3,0.3,0.7,0.5,1.1c0.1,0.3,0.2,0.7,0.4,1.1c0.1,0.4,0.3,1,0.5,1.5c0.2,0.6,0.4,1.2,0.6,1.9c0.2,0.7,0.4,1.4,0.6,2.1
		s0.4,1.5,0.6,2.2c0.2,0.8,0.4,1.5,0.6,2.3c0.4-1,0.8-2,1.2-3.1c0.4-1.1,0.8-2.1,1.3-3.2c0.4-1.1,0.8-2.2,1.3-3.2
		c0.4-1.1,0.8-2.1,1.2-3.1c0.1-0.2,0.2-0.3,0.3-0.4c0.1-0.1,0.2-0.2,0.4-0.3c0.1-0.1,0.3-0.1,0.4-0.1c0.2,0,0.3,0,0.5,0
		c0.2,0,0.5,0,0.7,0.1c0.2,0.1,0.5,0.2,0.7,0.3c-0.3,0.5-0.7,1.2-1.1,1.8c-0.4,0.7-0.7,1.4-1.1,2.2c-0.4,0.8-0.8,1.6-1.2,2.4
		c-0.4,0.8-0.8,1.7-1.2,2.5c-0.4,0.9-0.8,1.7-1.1,2.6c-0.4,0.9-0.7,1.7-1.1,2.6c-0.4,0.8-0.7,1.7-1,2.5c-0.3,0.8-0.6,1.6-0.9,2.4
		c-0.3,0.8-0.6,1.5-0.9,2.2s-0.6,1.4-0.9,2c-0.3,0.6-0.6,1.1-0.9,1.6c-0.3,0.5-0.7,0.9-1.1,1.3c-0.4,0.4-0.8,0.7-1.3,0.9
		c-0.5,0.2-1,0.3-1.6,0.3c-0.4,0-0.7,0-1-0.1c-0.3-0.1-0.5-0.2-0.7-0.4c-0.2-0.2-0.4-0.3-0.5-0.5c-0.1-0.2-0.2-0.4-0.2-0.6
		c0-0.2,0.1-0.5,0.2-0.8c0.1-0.3,0.3-0.5,0.6-0.6c0.3,0.2,0.6,0.3,1,0.4c0.3,0.1,0.6,0.1,0.9,0.1c0.6,0,1.2-0.2,1.6-0.5
		c0.5-0.3,0.9-0.8,1.3-1.5c0.4-0.7,0.8-1.5,1.3-2.5c0.4-1,0.9-2.2,1.4-3.5"/>
	<path class="st6" d="M219.9,27.2c0-0.3,0-0.6-0.1-0.8c-0.1-0.2-0.1-0.4-0.3-0.6c-0.1-0.1-0.3-0.2-0.5-0.3c-0.2-0.1-0.5-0.1-0.9-0.1
		c-0.5,0-1.1,0.1-1.9,0.2l-0.1-1c0.7-0.1,1.4-0.3,2.2-0.4c0.8-0.1,1.6-0.3,2.5-0.4c0.9-0.1,1.7-0.2,2.6-0.3c0.9-0.1,1.7-0.1,2.5-0.1
		c0.7,0,1.3,0,1.9,0.1c0.6,0.1,1.2,0.2,1.8,0.3c0.6,0.2,1.1,0.4,1.6,0.6c0.5,0.3,0.9,0.6,1.2,1c0.3,0.4,0.6,0.8,0.8,1.4
		c0.2,0.5,0.3,1.1,0.3,1.8c0,1-0.2,1.8-0.5,2.6c-0.3,0.8-0.8,1.4-1.4,2c-0.6,0.6-1.3,1-2.1,1.4c-0.8,0.4-1.6,0.7-2.4,0.9v0.1
		c1.1,0.1,2.2,0.3,3.1,0.6c1,0.3,1.8,0.7,2.5,1.3c0.7,0.5,1.2,1.2,1.6,2c0.4,0.8,0.6,1.7,0.6,2.8c0,0.9-0.1,1.7-0.4,2.5
		c-0.3,0.7-0.6,1.4-1,2c-0.4,0.6-1,1.1-1.6,1.5c-0.6,0.4-1.3,0.7-2,1c-0.7,0.3-1.5,0.5-2.2,0.6c-0.8,0.1-1.6,0.2-2.4,0.2
		c-0.7,0-1.3,0-1.9-0.1c-0.6-0.1-1.3-0.2-1.9-0.3l-2.2,0.3l-0.2,0c0.1-1,0.2-2.1,0.3-3.2c0.1-1.2,0.1-2.4,0.2-3.6s0.1-2.5,0.2-3.9
		c0-1.3,0.1-2.7,0.1-4c0-1.3,0-2.7,0.1-4S219.9,28.5,219.9,27.2z M222,48.2c0.6,0.1,1.1,0.2,1.6,0.3c0.5,0.1,1,0.1,1.5,0.1
		c0.9,0,1.8-0.1,2.6-0.3c0.8-0.2,1.5-0.6,2.1-1.1s1.1-1.1,1.4-1.9c0.3-0.8,0.5-1.7,0.5-2.8c0-1-0.2-1.9-0.5-2.6
		c-0.3-0.8-0.8-1.4-1.5-1.9c-0.7-0.5-1.5-0.9-2.4-1.1c-1-0.3-2.1-0.4-3.3-0.4c-0.2,0-0.5,0-0.7,0c-0.3,0-0.5,0-0.8,0
		c0,0.5,0,1-0.1,1.6c0,0.6,0,1.3-0.1,2c0,0.7-0.1,1.4-0.1,2.2c0,0.7-0.1,1.5-0.1,2.2c0,0.7-0.1,1.4-0.1,2
		C222,47.1,222,47.7,222,48.2z M222.8,24.9c0,0.5,0,1.1,0,1.8c0,0.7,0,1.5-0.1,2.4c0,0.9,0,1.8-0.1,2.9c0,1-0.1,2.1-0.1,3.3
		c0.7,0,1.3-0.1,1.9-0.2c0.6-0.1,1.3-0.2,1.8-0.4c0.6-0.2,1.1-0.4,1.6-0.7c0.5-0.3,0.9-0.7,1.3-1.1c0.4-0.4,0.7-0.9,0.9-1.5
		c0.2-0.6,0.3-1.2,0.3-2c0-0.9-0.1-1.6-0.4-2.2c-0.3-0.6-0.7-1.1-1.1-1.4c-0.5-0.4-1.1-0.6-1.7-0.8c-0.7-0.2-1.3-0.2-2.1-0.2
		c-0.4,0-0.7,0-1.1,0C223.6,24.8,223.2,24.9,222.8,24.9z"/>
	<path class="st6" d="M236.7,43.1c0-0.8,0.1-1.5,0.2-2.3c0.2-0.8,0.4-1.5,0.7-2.3c0.3-0.7,0.7-1.4,1.1-2.1c0.5-0.6,1-1.2,1.6-1.7
		c0.6-0.5,1.3-0.9,2-1.1c0.7-0.3,1.5-0.4,2.4-0.4c1,0,1.8,0.2,2.6,0.6c0.7,0.4,1.4,0.9,1.9,1.6c0.5,0.7,0.9,1.4,1.1,2.3
		c0.3,0.9,0.4,1.7,0.4,2.6c0,0.8-0.1,1.5-0.2,2.3c-0.2,0.8-0.4,1.5-0.7,2.3c-0.3,0.7-0.7,1.4-1.2,2.1c-0.5,0.6-1,1.2-1.6,1.7
		c-0.6,0.5-1.3,0.9-2,1.1c-0.7,0.3-1.5,0.4-2.4,0.4c-1,0-1.8-0.2-2.6-0.6c-0.7-0.4-1.4-0.9-1.9-1.6c-0.5-0.7-0.9-1.4-1.1-2.3
		C236.8,44.9,236.7,44,236.7,43.1z M239.4,42.1c0,0.5,0,1,0.1,1.6c0.1,0.5,0.2,1,0.4,1.5c0.2,0.5,0.4,0.9,0.6,1.4
		c0.2,0.4,0.5,0.8,0.9,1.1c0.3,0.3,0.7,0.6,1.1,0.7c0.4,0.2,0.9,0.3,1.4,0.3c0.5,0,1-0.1,1.4-0.4s0.8-0.6,1.1-0.9
		c0.3-0.4,0.6-0.8,0.8-1.3c0.2-0.5,0.4-1,0.5-1.6s0.2-1.1,0.3-1.6c0-0.5,0.1-1,0.1-1.5c0-0.5,0-1-0.1-1.6c-0.1-0.5-0.2-1-0.4-1.5
		c-0.2-0.5-0.4-0.9-0.6-1.4c-0.2-0.4-0.5-0.8-0.9-1.1c-0.3-0.3-0.7-0.6-1.1-0.7c-0.4-0.2-0.9-0.3-1.4-0.3c-0.5,0-1,0.1-1.4,0.3
		c-0.4,0.2-0.8,0.5-1.1,0.9c-0.3,0.4-0.6,0.8-0.8,1.3c-0.2,0.5-0.4,1-0.5,1.6c-0.1,0.5-0.2,1.1-0.3,1.6
		C239.4,41.2,239.4,41.6,239.4,42.1z"/>
	<path class="st6" d="M269.3,19.4c-0.3,1.9-0.5,3.9-0.8,5.9c-0.2,2-0.5,4-0.7,6c-0.2,2-0.3,3.9-0.5,5.9c-0.1,1.9-0.2,3.8-0.2,5.5
		c0,0.9,0,1.6,0,2.2c0,0.6,0,1.1,0.1,1.5c0,0.4,0.1,0.8,0.2,1c0.1,0.2,0.2,0.4,0.3,0.6c0.1,0.1,0.2,0.2,0.4,0.3
		c0.1,0,0.3,0.1,0.5,0.1c0.4,0,0.8-0.1,1.2-0.2c0.4-0.1,0.8-0.3,1.3-0.5l0.2,0.6c-0.3,0.2-0.6,0.4-1,0.7c-0.4,0.2-0.8,0.4-1.3,0.6
		c-0.5,0.2-0.9,0.3-1.3,0.5c-0.4,0.1-0.8,0.2-1.1,0.2c-0.2,0-0.4,0-0.6-0.1c-0.2-0.1-0.3-0.1-0.4-0.3c-0.1-0.1-0.2-0.3-0.3-0.5
		c-0.1-0.2-0.2-0.5-0.2-0.8c-0.1-0.5-0.1-1-0.2-1.6c0-0.6-0.1-1.3-0.1-2c0-0.8,0-1.5,0.1-2.3c0.1-0.8,0.1-1.6,0.3-2.3l-0.1,0
		c-0.6,1.5-1.2,2.9-1.9,4.1c-0.7,1.2-1.4,2.3-2.1,3.2c-0.7,0.9-1.4,1.5-2.2,2c-0.7,0.5-1.4,0.7-2.1,0.7c-0.7,0-1.3-0.2-1.7-0.5
		c-0.5-0.3-0.9-0.8-1.2-1.4c-0.3-0.6-0.5-1.2-0.7-1.9c-0.2-0.7-0.2-1.5-0.2-2.2c0-0.9,0.1-1.8,0.3-2.7c0.2-0.9,0.5-1.8,0.9-2.6
		c0.4-0.8,0.8-1.6,1.4-2.2c0.5-0.7,1.1-1.3,1.8-1.8c0.7-0.5,1.4-0.9,2.1-1.2c0.8-0.3,1.6-0.4,2.4-0.4c0.6,0,1.2,0.1,1.8,0.2
		c0.6,0.2,1.2,0.4,1.8,0.7c0-1.3,0.1-2.6,0.1-3.9c0.1-1.3,0.1-2.6,0.2-3.9c0.1-1.2,0.2-2.4,0.2-3.5c0.1-1.1,0.2-2.1,0.3-3
		c0-0.2,0.1-0.3,0.2-0.5c0.1-0.1,0.2-0.2,0.4-0.3c0.2-0.1,0.3-0.1,0.5-0.2c0.2,0,0.4-0.1,0.6-0.1C268.3,19,268.8,19.1,269.3,19.4z
		 M265.3,35.3c-1-0.5-2-0.7-3-0.7c-0.7,0-1.4,0.1-2,0.3c-0.6,0.2-1.2,0.6-1.7,1c-0.5,0.4-0.9,0.9-1.3,1.4c-0.4,0.6-0.7,1.1-0.9,1.8
		c-0.2,0.6-0.4,1.3-0.5,2c-0.1,0.7-0.2,1.4-0.2,2c0,0.2,0,0.5,0,0.8c0,0.3,0.1,0.6,0.1,1c0.1,0.3,0.1,0.7,0.3,1
		c0.1,0.3,0.2,0.6,0.4,0.9c0.2,0.3,0.3,0.5,0.6,0.6c0.2,0.2,0.5,0.2,0.8,0.2c0.5,0,1.1-0.2,1.7-0.6c0.6-0.4,1.1-0.9,1.7-1.6
		s1-1.4,1.5-2.3c0.5-0.9,0.9-1.8,1.3-2.7c0.4-0.9,0.7-1.8,0.9-2.7C265.1,36.8,265.2,36,265.3,35.3z"/>
	<path class="st6" d="M276.2,33.8c-0.1,0.9-0.2,1.7-0.3,2.6c-0.1,0.9-0.2,1.7-0.2,2.5c-0.1,0.8-0.1,1.6-0.1,2.3c0,0.7,0,1.4,0,1.9
		c0,0.8,0,1.5,0,2c0,0.6,0.1,1,0.1,1.4c0.1,0.4,0.1,0.7,0.2,0.9c0.1,0.2,0.2,0.4,0.3,0.5c0.1,0.1,0.3,0.2,0.4,0.2
		c0.2,0,0.3,0.1,0.5,0.1c0.4,0,0.8-0.1,1.2-0.2c0.4-0.1,0.8-0.3,1.3-0.5l0.2,0.6c-0.3,0.2-0.6,0.4-1,0.7c-0.4,0.2-0.8,0.4-1.3,0.6
		c-0.5,0.2-0.9,0.3-1.3,0.5c-0.4,0.1-0.8,0.2-1.1,0.2c-0.2,0-0.4,0-0.6-0.1c-0.2,0-0.3-0.1-0.5-0.3c-0.1-0.1-0.3-0.3-0.4-0.6
		c-0.1-0.3-0.2-0.6-0.3-1.1c-0.1-0.5-0.1-1-0.2-1.7c0-0.7-0.1-1.5-0.1-2.5c0-0.6,0-1.2,0-1.9c0-0.7,0-1.5,0.1-2.3
		c0-0.8,0.1-1.7,0.1-2.6c0-0.9,0.1-1.8,0.1-2.8c0-0.2,0.1-0.4,0.2-0.5c0.1-0.1,0.2-0.2,0.4-0.3c0.1-0.1,0.3-0.1,0.5-0.1
		c0.2,0,0.3,0,0.4,0C275.3,33.4,275.8,33.5,276.2,33.8z M275.2,28.7c-0.3,0-0.5-0.1-0.7-0.2c-0.2-0.1-0.4-0.3-0.5-0.4
		c-0.1-0.2-0.3-0.4-0.3-0.6c-0.1-0.2-0.1-0.5-0.1-0.7c0-0.3,0.1-0.6,0.2-0.9c0.1-0.3,0.3-0.5,0.4-0.7c0.2-0.2,0.4-0.3,0.6-0.4
		c0.2-0.1,0.4-0.1,0.6-0.1c0.3,0,0.5,0,0.7,0.1c0.2,0.1,0.4,0.2,0.5,0.4s0.3,0.4,0.3,0.6c0.1,0.2,0.1,0.4,0.1,0.7
		c0,0.3,0,0.5-0.1,0.8c-0.1,0.3-0.2,0.5-0.4,0.7c-0.2,0.2-0.4,0.4-0.6,0.5C275.8,28.6,275.5,28.7,275.2,28.7z"/>
	<path class="st6" d="M292.8,46.1c0,0,0.1,0.1,0.2,0.1c0.1,0,0.1,0.1,0.2,0.1c0.1,0,0.1,0.1,0.2,0.2c0,0.1,0.1,0.1,0.1,0.2
		c0,0,0,0.1,0,0.1c-0.4,0.6-0.9,1.1-1.4,1.5c-0.5,0.4-1,0.8-1.5,1.1c-0.5,0.3-1.1,0.5-1.6,0.6c-0.5,0.1-1.1,0.2-1.6,0.2
		c-0.9,0-1.7-0.2-2.5-0.6c-0.8-0.4-1.4-0.9-1.9-1.5c-0.5-0.6-1-1.4-1.3-2.3c-0.3-0.9-0.5-1.8-0.5-2.8c0-0.8,0.1-1.6,0.3-2.4
		c0.2-0.8,0.4-1.6,0.8-2.3c0.3-0.7,0.7-1.4,1.2-2c0.5-0.6,1-1.2,1.6-1.6c0.6-0.5,1.3-0.8,2-1.1c0.7-0.3,1.5-0.4,2.4-0.4
		c0.6,0,1.1,0.1,1.6,0.2c0.5,0.2,0.9,0.4,1.3,0.6c0.4,0.3,0.7,0.6,0.9,1c0.2,0.4,0.3,0.9,0.3,1.4c0,0.8-0.3,1.4-0.8,2
		c-0.5,0.6-1.2,1.1-2.1,1.5c-0.9,0.4-1.9,0.7-3.1,1c-1.2,0.2-2.5,0.4-3.9,0.5v0.2c0,1,0.1,1.8,0.4,2.6c0.2,0.8,0.6,1.5,1,2
		c0.4,0.6,0.9,1,1.5,1.3c0.6,0.3,1.2,0.5,1.9,0.5c0.7,0,1.4-0.2,2.1-0.5C291.3,47.4,292.1,46.9,292.8,46.1z M290.7,37.1
		c0-0.3-0.1-0.7-0.2-1c-0.1-0.3-0.3-0.6-0.5-0.8c-0.2-0.2-0.5-0.4-0.7-0.5c-0.3-0.1-0.6-0.2-0.9-0.2c-0.5,0-0.9,0.1-1.3,0.3
		c-0.4,0.2-0.8,0.4-1.1,0.7c-0.3,0.3-0.6,0.6-0.8,1c-0.2,0.4-0.4,0.8-0.6,1.3c-0.2,0.4-0.3,0.9-0.4,1.4c-0.1,0.5-0.2,0.9-0.2,1.4
		c1.1-0.1,2-0.2,2.9-0.4c0.8-0.2,1.6-0.4,2.1-0.7c0.6-0.3,1-0.6,1.3-1C290.5,38.1,290.7,37.6,290.7,37.1z"/>
	<path class="st6" d="M297.3,45.6c0.1,0.6,0.2,1.1,0.5,1.5c0.3,0.4,0.6,0.8,0.9,1c0.4,0.3,0.8,0.5,1.2,0.6c0.4,0.1,0.9,0.2,1.3,0.2
		c0.4,0,0.8-0.1,1.2-0.2s0.7-0.3,1-0.5c0.3-0.2,0.5-0.5,0.7-0.8c0.2-0.3,0.3-0.7,0.3-1c0-0.4-0.1-0.7-0.3-1
		c-0.2-0.3-0.4-0.6-0.8-0.8c-0.3-0.2-0.7-0.5-1.1-0.7c-0.4-0.2-0.9-0.4-1.3-0.6c-0.4-0.2-0.8-0.4-1.2-0.6s-0.8-0.4-1.2-0.6
		c-0.4-0.2-0.7-0.5-1.1-0.7c-0.3-0.3-0.6-0.6-0.9-0.9c-0.2-0.3-0.4-0.7-0.6-1.1c-0.1-0.4-0.2-0.8-0.2-1.3c0-0.5,0.1-1,0.3-1.4
		c0.2-0.4,0.4-0.8,0.7-1.2c0.3-0.3,0.7-0.7,1.1-0.9c0.4-0.3,0.8-0.5,1.3-0.7c0.5-0.2,0.9-0.3,1.4-0.4c0.5-0.1,1-0.1,1.4-0.1
		c0.6,0,1.2,0.1,1.7,0.2c0.5,0.1,1,0.3,1.4,0.6c0.4,0.3,0.7,0.6,1,0.9c0.2,0.4,0.4,0.8,0.4,1.2c0,0.2,0,0.4-0.1,0.6
		c-0.1,0.2-0.2,0.4-0.3,0.6c-0.1,0.2-0.3,0.3-0.6,0.4c-0.2,0.1-0.5,0.2-0.9,0.2c-0.3,0-0.6,0-1-0.1l0-0.1c0.1-0.2,0.2-0.5,0.2-0.7
		c0-0.2,0.1-0.4,0.1-0.6c0-0.3-0.1-0.6-0.3-0.9c-0.2-0.2-0.4-0.4-0.6-0.6c-0.3-0.2-0.5-0.3-0.9-0.3c-0.3-0.1-0.6-0.1-0.9-0.1
		c-0.5,0-1,0.1-1.4,0.2c-0.4,0.1-0.8,0.3-1.1,0.6c-0.3,0.2-0.5,0.5-0.7,0.8c-0.2,0.3-0.2,0.6-0.2,0.9c0,0.4,0.1,0.8,0.3,1.1
		c0.2,0.3,0.5,0.6,0.9,0.9c0.4,0.3,0.8,0.5,1.2,0.8c0.5,0.2,1,0.5,1.5,0.7c0.6,0.3,1.1,0.6,1.7,0.8c0.6,0.3,1.1,0.6,1.5,1
		c0.4,0.4,0.8,0.8,1.1,1.3c0.3,0.5,0.4,1,0.4,1.7c0,0.8-0.2,1.5-0.5,2.1c-0.3,0.6-0.8,1.1-1.4,1.5c-0.6,0.4-1.2,0.7-2,0.9
		c-0.7,0.2-1.5,0.3-2.3,0.3c-0.4,0-0.8,0-1.2-0.1c-0.4-0.1-0.8-0.2-1.2-0.3c-0.4-0.1-0.8-0.3-1.1-0.4c-0.4-0.2-0.7-0.4-0.9-0.6
		c-0.3-0.2-0.5-0.5-0.6-0.8c-0.2-0.3-0.2-0.6-0.2-0.9c0-0.3,0.1-0.5,0.2-0.7c0.1-0.2,0.3-0.4,0.5-0.5c0.2-0.1,0.4-0.2,0.7-0.3
		S296.9,45.5,297.3,45.6L297.3,45.6z"/>
</g>
<g id="Layer_3" class="st0">
</g>
</svg>
